<?xml version="1.0" standalone="no"?>
<!DOCTYPE svg PUBLIC "-//W3C//DTD SVG 20010904//EN"
 "http://www.w3.org/TR/2001/REC-SVG-20010904/DTD/svg10.dtd">
<svg version="1.0" xmlns="http://www.w3.org/2000/svg"
 width="700.000000pt" height="700.000000pt" viewBox="0 0 700.000000 700.000000"
 preserveAspectRatio="xMidYMid meet">
<metadata>
Created by potrace 1.11, written by Peter Selinger 2001-2013
</metadata>
<g transform="translate(0.000000,700.000000) scale(0.100000,-0.100000)"
fill="#000000" stroke="none">
<path d="M3395 6478 c-90 -15 -188 -39 -265 -65 -89 -30 -340 -151 -340 -164
0 -5 -5 -9 -11 -9 -6 0 -39 -19 -72 -42 -228 -157 -500 -433 -703 -713 -106
-146 -269 -406 -326 -520 -8 -16 -40 -79 -71 -140 -141 -278 -263 -586 -356
-904 -35 -116 -98 -381 -107 -446 -3 -23 -14 -89 -19 -117 -3 -11 -7 -46 -11
-77 -3 -31 -8 -69 -11 -86 -3 -16 -6 -124 -8 -240 -4 -242 4 -333 45 -536 34
-166 81 -322 121 -401 5 -10 9 -23 9 -28 0 -21 120 -260 177 -352 229 -373
539 -666 931 -882 56 -31 104 -56 106 -56 3 0 33 -13 68 -29 35 -15 97 -41
138 -56 41 -14 86 -31 100 -36 14 -5 34 -11 45 -13 11 -3 63 -16 115 -30 319
-83 703 -93 1055 -26 65 13 235 55 275 70 292 103 502 212 717 371 116 86 141
107 264 229 270 268 466 581 592 950 44 129 88 311 102 425 4 28 9 61 11 75 9
49 12 466 4 540 -14 129 -20 174 -25 200 -3 14 -7 43 -10 65 -2 22 -7 51 -10
65 -3 14 -9 48 -14 75 -56 300 -192 746 -302 992 -10 24 -19 45 -19 47 0 23
-196 417 -273 551 -339 583 -711 970 -1128 1175 -126 62 -228 95 -414 135 -47
11 -325 13 -380 3z"/>
</g>
</svg>
